<?xml version="1.0" encoding="UTF-8" standalone="no"?>
<!-- Created with Inkscape (http://www.inkscape.org/) -->

<svg
   width="400"
   height="400"
   viewBox="0 0 400 400"
   version="1.1"
   id="svg1"
   inkscape:version="1.4 (1:1.4+202410161351+e7c3feb100)"
   sodipodi:docname="mvu.svg"
   xml:space="preserve"
   xmlns:inkscape="http://www.inkscape.org/namespaces/inkscape"
   xmlns:sodipodi="http://sodipodi.sourceforge.net/DTD/sodipodi-0.dtd"
   xmlns="http://www.w3.org/2000/svg"
   xmlns:svg="http://www.w3.org/2000/svg"><sodipodi:namedview
     id="namedview1"
     pagecolor="#ffffff"
     bordercolor="#000000"
     borderopacity="0.25"
     inkscape:showpageshadow="2"
     inkscape:pageopacity="0.0"
     inkscape:pagecheckerboard="0"
     inkscape:deskcolor="#d1d1d1"
     inkscape:document-units="px"
     showgrid="true"
     inkscape:zoom="2.0233293"
     inkscape:cx="135.42037"
     inkscape:cy="174.71204"
     inkscape:window-width="1920"
     inkscape:window-height="1011"
     inkscape:window-x="1920"
     inkscape:window-y="32"
     inkscape:window-maximized="1"
     inkscape:current-layer="layer1"><inkscape:grid
       id="grid1"
       units="px"
       originx="0"
       originy="0"
       spacingx="1"
       spacingy="1"
       empcolor="#0099e5"
       empopacity="0.45882353"
       color="#e50000"
       opacity="0"
       empspacing="8"
       enabled="true"
       visible="true" /></sodipodi:namedview><defs
     id="defs1" /><g
     inkscape:label="Layer 1"
     inkscape:groupmode="layer"
     id="layer1"><g
       inkscape:label="Layer 1"
       id="layer1-3"
       transform="translate(-715.61936,-437.80579)"><rect
         style="fill:#33c255;stroke-width:0.845324"
         id="rect1"
         width="79.899612"
         height="117.59081"
         x="256.54868"
         y="252.62753"
         rx="27.912851"
         ry="27.912851" /><path
         id="path3"
         style="fill:#33c255;fill-opacity:1;stroke-width:1.07381"
         d="M 296.49805,108.98633 A 66.013672,66.013672 0 0 0 230.48438,175 66.013672,66.013672 0 0 0 296.49805,241.01367 66.013672,66.013672 0 0 0 362.51172,175 66.013672,66.013672 0 0 0 296.49805,108.98633 Z M 258.3457,145.26367 A 14.868465,14.868465 0 0 1 273.21484,160.13086 14.868465,14.868465 0 0 1 258.3457,175 14.868465,14.868465 0 0 1 243.47852,160.13086 14.868465,14.868465 0 0 1 258.3457,145.26367 Z m -9.51953,60.26953 h 30.32617 c 1.33112,0 2.40235,1.07123 2.40235,2.40235 0,1.33111 -1.07123,2.40234 -2.40235,2.40234 h -30.32617 c -1.33111,0 -2.40234,-1.07123 -2.40234,-2.40234 0,-1.33112 1.07123,-2.40235 2.40234,-2.40235 z" /><circle
         style="fill:#33c255;fill-opacity:1;stroke-width:0.130325"
         id="path3-6-6"
         cx="253.56531"
         cy="160.13153"
         r="8.0118961" /><path
         id="rect3"
         style="fill:#33c255;fill-opacity:1"
         d="m 41.359375,135.16406 c -4.054936,0 -7.320313,3.26538 -7.320313,7.32032 v 115.03515 c 0,4.05494 3.265377,7.31836 7.320313,7.31836 H 197.94336 c 4.05494,0 7.32031,-3.26342 7.32031,-7.31836 V 142.48438 c 0,-4.05494 -3.26537,-7.32032 -7.32031,-7.32032 z m 9.974609,8.26172 H 187.96875 c 3.53831,0 6.38672,2.84841 6.38672,6.38672 v 100.37891 c 0,3.53831 -2.84841,6.38671 -6.38672,6.38671 H 51.333984 c -3.538309,0 -6.386718,-2.8484 -6.386718,-6.38671 V 149.8125 c 0,-3.53831 2.848409,-6.38672 6.386718,-6.38672 z" /><rect
         style="fill:#33c255;fill-opacity:1;stroke:none;stroke-width:1.09793;stroke-opacity:1"
         id="rect4"
         width="21.079308"
         height="45.706905"
         x="109.1117"
         y="256.578"
         rx="0"
         ry="0" /><rect
         style="fill:#33c255;fill-opacity:1;stroke:none;stroke-width:1.09577;stroke-opacity:1"
         id="rect4-2"
         width="15.401663"
         height="62.309586"
         x="302.28491"
         y="-150.58424"
         rx="2.8899863"
         ry="2.8899863"
         transform="rotate(90)" /><rect
         style="fill:#00ccff;fill-opacity:1;stroke:none;stroke-width:0.889988;stroke-opacity:1"
         id="rect5"
         width="10.203187"
         height="26.768078"
         x="270.3288"
         y="210.22241"
         rx="2.9446313"
         ry="2.9446313" /></g></g><inkscape:templateinfo><inkscape:name>inkscape</inkscape:name><inkscape:date>2024-11-04</inkscape:date></inkscape:templateinfo></svg>
